<svg xmlns="http://www.w3.org/2000/svg" xmlns:xlink="http://www.w3.org/1999/xlink" version="1.1" class="marks" width="617" height="363" viewBox="0 0 617 363"><rect width="617" height="363" fill="white"/><g fill="none" stroke-miterlimit="10" transform="translate(52,13)"><g class="mark-group role-frame root" role="graphics-object" aria-roledescription="group mark container"><g transform="translate(0,0)"><path class="background" aria-hidden="true" d="M0,0h560v300h-560Z"/><g><g class="mark-group role-axis" aria-hidden="true"><g transform="translate(0.5,0.5)"><path class="background" aria-hidden="true" d="M0,0h0v0h0Z" pointer-events="none"/><g><g class="mark-rule role-axis-grid" pointer-events="none"><line transform="translate(0,300)" x2="560" y2="0" stroke="#ddd" stroke-width="1" opacity="1"/><line transform="translate(0,273)" x2="560" y2="0" stroke="#ddd" stroke-width="1" opacity="1"/><line transform="translate(0,245)" x2="560" y2="0" stroke="#ddd" stroke-width="1" opacity="1"/><line transform="translate(0,218)" x2="560" y2="0" stroke="#ddd" stroke-width="1" opacity="1"/><line transform="translate(0,191)" x2="560" y2="0" stroke="#ddd" stroke-width="1" opacity="1"/><line transform="translate(0,164)" x2="560" y2="0" stroke="#ddd" stroke-width="1" opacity="1"/><line transform="translate(0,136)" x2="560" y2="0" stroke="#ddd" stroke-width="1" opacity="1"/><line transform="translate(0,109)" x2="560" y2="0" stroke="#ddd" stroke-width="1" opacity="1"/><line transform="translate(0,82)" x2="560" y2="0" stroke="#ddd" stroke-width="1" opacity="1"/><line transform="translate(0,55)" x2="560" y2="0" stroke="#ddd" stroke-width="1" opacity="1"/><line transform="translate(0,27)" x2="560" y2="0" stroke="#ddd" stroke-width="1" opacity="1"/><line transform="translate(0,0)" x2="560" y2="0" stroke="#ddd" stroke-width="1" opacity="1"/></g></g><path class="foreground" aria-hidden="true" d="" pointer-events="none" display="none"/></g></g><g class="mark-group role-axis" role="graphics-symbol" aria-roledescription="axis" aria-label="X-axis titled 'Diff size' for a discrete scale with 4 values: &lt; 50 lines, 50–200, 200–500, &gt; 500"><g transform="translate(0.5,300.5)"><path class="background" aria-hidden="true" d="M0,0h0v0h0Z" pointer-events="none"/><g><g class="mark-rule role-axis-tick" pointer-events="none"><line transform="translate(70,0)" x2="0" y2="5" stroke="#888" stroke-width="1" opacity="1"/><line transform="translate(210,0)" x2="0" y2="5" stroke="#888" stroke-width="1" opacity="1"/><line transform="translate(350,0)" x2="0" y2="5" stroke="#888" stroke-width="1" opacity="1"/><line transform="translate(490,0)" x2="0" y2="5" stroke="#888" stroke-width="1" opacity="1"/></g><g class="mark-text role-axis-label" pointer-events="none"><text text-anchor="middle" transform="translate(69.5,20)" font-family="Tahoma, Verdana, sans-serif" font-size="16px" fill="#282828" opacity="1">&lt; 50 lines</text><text text-anchor="middle" transform="translate(209.5,20)" font-family="Tahoma, Verdana, sans-serif" font-size="16px" fill="#282828" opacity="1">50–200</text><text text-anchor="middle" transform="translate(349.5,20)" font-family="Tahoma, Verdana, sans-serif" font-size="16px" fill="#282828" opacity="1">200–500</text><text text-anchor="middle" transform="translate(489.5,20)" font-family="Tahoma, Verdana, sans-serif" font-size="16px" fill="#282828" opacity="1">&gt; 500</text></g><g class="mark-rule role-axis-domain" pointer-events="none"><line transform="translate(0,0)" x2="560" y2="0" stroke="#888" stroke-width="1" opacity="1"/></g><g class="mark-text role-axis-title" pointer-events="none"><text text-anchor="middle" transform="translate(280,41)" font-family="Tahoma, Verdana, sans-serif" font-size="18px" font-weight="bold" fill="#282828" opacity="1">Diff size</text></g></g><path class="foreground" aria-hidden="true" d="" pointer-events="none" display="none"/></g></g><g class="mark-group role-axis" role="graphics-symbol" aria-roledescription="axis" aria-label="Y-axis titled 'Median hours to merge' for a linear scale with values from 0 to 55"><g transform="translate(0.5,0.5)"><path class="background" aria-hidden="true" d="M0,0h0v0h0Z" pointer-events="none"/><g><g class="mark-rule role-axis-tick" pointer-events="none"><line transform="translate(0,300)" x2="-5" y2="0" stroke="#888" stroke-width="1" opacity="1"/><line transform="translate(0,273)" x2="-5" y2="0" stroke="#888" stroke-width="1" opacity="1"/><line transform="translate(0,245)" x2="-5" y2="0" stroke="#888" stroke-width="1" opacity="1"/><line transform="translate(0,218)" x2="-5" y2="0" stroke="#888" stroke-width="1" opacity="1"/><line transform="translate(0,191)" x2="-5" y2="0" stroke="#888" stroke-width="1" opacity="1"/><line transform="translate(0,164)" x2="-5" y2="0" stroke="#888" stroke-width="1" opacity="1"/><line transform="translate(0,136)" x2="-5" y2="0" stroke="#888" stroke-width="1" opacity="1"/><line transform="translate(0,109)" x2="-5" y2="0" stroke="#888" stroke-width="1" opacity="1"/><line transform="translate(0,82)" x2="-5" y2="0" stroke="#888" stroke-width="1" opacity="1"/><line transform="translate(0,55)" x2="-5" y2="0" stroke="#888" stroke-width="1" opacity="1"/><line transform="translate(0,27)" x2="-5" y2="0" stroke="#888" stroke-width="1" opacity="1"/><line transform="translate(0,0)" x2="-5" y2="0" stroke="#888" stroke-width="1" opacity="1"/></g><g class="mark-text role-axis-label" pointer-events="none"><text text-anchor="end" transform="translate(-7,305)" font-family="Tahoma, Verdana, sans-serif" font-size="16px" fill="#282828" opacity="1">0</text><text text-anchor="end" transform="translate(-7,277.7272727272727)" font-family="Tahoma, Verdana, sans-serif" font-size="16px" fill="#282828" opacity="1">5</text><text text-anchor="end" transform="translate(-7,250.45454545454544)" font-family="Tahoma, Verdana, sans-serif" font-size="16px" fill="#282828" opacity="1">10</text><text text-anchor="end" transform="translate(-7,223.1818181818182)" font-family="Tahoma, Verdana, sans-serif" font-size="16px" fill="#282828" opacity="1">15</text><text text-anchor="end" transform="translate(-7,195.9090909090909)" font-family="Tahoma, Verdana, sans-serif" font-size="16px" fill="#282828" opacity="1">20</text><text text-anchor="end" transform="translate(-7,168.63636363636363)" font-family="Tahoma, Verdana, sans-serif" font-size="16px" fill="#282828" opacity="1">25</text><text text-anchor="end" transform="translate(-7,141.36363636363637)" font-family="Tahoma, Verdana, sans-serif" font-size="16px" fill="#282828" opacity="1">30</text><text text-anchor="end" transform="translate(-7,114.0909090909091)" font-family="Tahoma, Verdana, sans-serif" font-size="16px" fill="#282828" opacity="1">35</text><text text-anchor="end" transform="translate(-7,86.81818181818181)" font-family="Tahoma, Verdana, sans-serif" font-size="16px" fill="#282828" opacity="1">40</text><text text-anchor="end" transform="translate(-7,59.54545454545453)" font-family="Tahoma, Verdana, sans-serif" font-size="16px" fill="#282828" opacity="1">45</text><text text-anchor="end" transform="translate(-7,32.27272727272728)" font-family="Tahoma, Verdana, sans-serif" font-size="16px" fill="#282828" opacity="1">50</text><text text-anchor="end" transform="translate(-7,5)" font-family="Tahoma, Verdana, sans-serif" font-size="16px" fill="#282828" opacity="1">55</text></g><g class="mark-rule role-axis-domain" pointer-events="none"><line transform="translate(0,300)" x2="0" y2="-300" stroke="#888" stroke-width="1" opacity="1"/></g><g class="mark-text role-axis-title" pointer-events="none"><text text-anchor="middle" transform="translate(-28.46875,150) rotate(-90) translate(0,-4)" font-family="Tahoma, Verdana, sans-serif" font-size="18px" font-weight="bold" fill="#282828" opacity="1">Median hours to merge</text></g></g><path class="foreground" aria-hidden="true" d="" pointer-events="none" display="none"/></g></g><g class="mark-group role-scope" role="graphics-object" aria-roledescription="group mark container"><g transform="translate(7,283.6363636363636)"><path class="background" aria-hidden="true" d="M4,0L122,0C124.207660097976,0,126,1.792339902024,126,4L126,16.363636363636374C126,16.363636363636374,126,16.363636363636374,126,16.363636363636374L0,16.363636363636374C0,16.363636363636374,0,16.363636363636374,0,16.363636363636374L0,4C0,1.792339902024,1.792339902024,0,4,0Z"/><g clip-path="url(#clip1)"><g class="mark-group role-scope" role="graphics-object" aria-roledescription="group mark container"><g transform="translate(0,-283.6363636363636)"><path class="background" aria-hidden="true" d="M0,0h126v0h-126Z"/><g><g class="mark-rect role-mark marks" role="graphics-object" aria-roledescription="rect mark container"><path aria-label="size: &lt; 50 lines; Median hours to merge: 3" role="graphics-symbol" aria-roledescription="bar" d="M0,283.6363636363636h126v16.363636363636374h-126Z" fill="#019546"/></g></g><path class="foreground" aria-hidden="true" d="" display="none"/></g></g></g><path class="foreground" aria-hidden="true" d="" display="none"/></g><g transform="translate(147,250.90909090909093)"><path class="background" aria-hidden="true" d="M4,0L122,0C124.207660097976,0,126,1.792339902024,126,4L126,49.090909090909065C126,49.090909090909065,126,49.090909090909065,126,49.090909090909065L0,49.090909090909065C0,49.090909090909065,0,49.090909090909065,0,49.090909090909065L0,4C0,1.792339902024,1.792339902024,0,4,0Z"/><g clip-path="url(#clip2)"><g class="mark-group role-scope" role="graphics-object" aria-roledescription="group mark container"><g transform="translate(0,-250.90909090909093)"><path class="background" aria-hidden="true" d="M0,0h126v0h-126Z"/><g><g class="mark-rect role-mark marks" role="graphics-object" aria-roledescription="rect mark container"><path aria-label="size: 50–200; Median hours to merge: 9" role="graphics-symbol" aria-roledescription="bar" d="M0,250.90909090909093h126v49.090909090909065h-126Z" fill="#019546"/></g></g><path class="foreground" aria-hidden="true" d="" display="none"/></g></g></g><path class="foreground" aria-hidden="true" d="" display="none"/></g><g transform="translate(287,180)"><path class="background" aria-hidden="true" d="M4,0L122,0C124.207660097976,0,126,1.792339902024,126,4L126,120C126,120,126,120,126,120L0,120C0,120,0,120,0,120L0,4C0,1.792339902024,1.792339902024,0,4,0Z"/><g clip-path="url(#clip3)"><g class="mark-group role-scope" role="graphics-object" aria-roledescription="group mark container"><g transform="translate(0,-180)"><path class="background" aria-hidden="true" d="M0,0h126v0h-126Z"/><g><g class="mark-rect role-mark marks" role="graphics-object" aria-roledescription="rect mark container"><path aria-label="size: 200–500; Median hours to merge: 22" role="graphics-symbol" aria-roledescription="bar" d="M0,180h126v120h-126Z" fill="#019546"/></g></g><path class="foreground" aria-hidden="true" d="" display="none"/></g></g></g><path class="foreground" aria-hidden="true" d="" display="none"/></g><g transform="translate(427,21.818181818181827)"><path class="background" aria-hidden="true" d="M4,0L122,0C124.207660097976,0,126,1.792339902024,126,4L126,278.1818181818182C126,278.1818181818182,126,278.1818181818182,126,278.1818181818182L0,278.1818181818182C0,278.1818181818182,0,278.1818181818182,0,278.1818181818182L0,4C0,1.792339902024,1.792339902024,0,4,0Z"/><g clip-path="url(#clip4)"><g class="mark-group role-scope" role="graphics-object" aria-roledescription="group mark container"><g transform="translate(0,-21.818181818181827)"><path class="background" aria-hidden="true" d="M0,0h126v0h-126Z"/><g><g class="mark-rect role-mark marks" role="graphics-object" aria-roledescription="rect mark container"><path aria-label="size: &gt; 500; Median hours to merge: 51" role="graphics-symbol" aria-roledescription="bar" d="M0,21.818181818181827h126v278.1818181818182h-126Z" fill="#019546"/></g></g><path class="foreground" aria-hidden="true" d="" display="none"/></g></g></g><path class="foreground" aria-hidden="true" d="" display="none"/></g></g></g><path class="foreground" aria-hidden="true" d="" display="none"/></g></g></g><defs><clipPath id="clip1"><path d="M4,0L122,0C124.207660097976,0,126,1.792339902024,126,4L126,16.363636363636374C126,16.363636363636374,126,16.363636363636374,126,16.363636363636374L0,16.363636363636374C0,16.363636363636374,0,16.363636363636374,0,16.363636363636374L0,4C0,1.792339902024,1.792339902024,0,4,0Z"/></clipPath><clipPath id="clip2"><path d="M4,0L122,0C124.207660097976,0,126,1.792339902024,126,4L126,49.090909090909065C126,49.090909090909065,126,49.090909090909065,126,49.090909090909065L0,49.090909090909065C0,49.090909090909065,0,49.090909090909065,0,49.090909090909065L0,4C0,1.792339902024,1.792339902024,0,4,0Z"/></clipPath><clipPath id="clip3"><path d="M4,0L122,0C124.207660097976,0,126,1.792339902024,126,4L126,120C126,120,126,120,126,120L0,120C0,120,0,120,0,120L0,4C0,1.792339902024,1.792339902024,0,4,0Z"/></clipPath><clipPath id="clip4"><path d="M4,0L122,0C124.207660097976,0,126,1.792339902024,126,4L126,278.1818181818182C126,278.1818181818182,126,278.1818181818182,126,278.1818181818182L0,278.1818181818182C0,278.1818181818182,0,278.1818181818182,0,278.1818181818182L0,4C0,1.792339902024,1.792339902024,0,4,0Z"/></clipPath></defs></svg>